HIERARCHY
ROOT Hips
{
	OFFSET 0.000000 0.000000 0.000000
	CHANNELS 6 Xposition Yposition Zposition Yrotation Xrotation Zrotation
	JOINT Chest
	{
		OFFSET 0.000000 -0.009281 11.569106
		CHANNELS 3 Yrotation Xrotation Zrotation
		JOINT Chest2
		{
			OFFSET -0.000000 0.016865 9.269641
			CHANNELS 3 Yrotation Xrotation Zrotation
			JOINT Chest3
			{
				OFFSET -0.000000 0.000001 8.374491
				CHANNELS 3 Yrotation Xrotation Zrotation
				JOINT Chest4
				{
					OFFSET -0.000000 0.000001 8.374493
					CHANNELS 3 Yrotation Xrotation Zrotation
					JOINT Neck
					{
						OFFSET -0.000000 0.000002 12.152554
						CHANNELS 3 Yrotation Xrotation Zrotation
						JOINT Head
						{
							OFFSET -0.000000 0.040101 7.802319
							CHANNELS 3 Yrotation Xrotation Zrotation
							End Site
							{
								OFFSET -0.000000 0.020947 14.853096
							}
						}
					}
					JOINT RightCollar
					{
						OFFSET 2.894404 0.000001 6.791374
						CHANNELS 3 Yrotation Xrotation Zrotation
						JOINT RightShoulder
						{
							OFFSET 13.574684 0.000001 0.000000
							CHANNELS 3 Yrotation Xrotation Zrotation
							JOINT RightElbow
							{
								OFFSET 23.923903 0.000002 0.000000
								CHANNELS 3 Yrotation Xrotation Zrotation
								JOINT RightWrist
								{
									OFFSET 19.846718 0.012767 0.000000
									CHANNELS 3 Yrotation Xrotation Zrotation
									End Site
									{
										OFFSET 14.973145 0.000001 0.000000
									}
								}
							}
						}
					}
					JOINT LeftCollar
					{
						OFFSET -2.894404 0.000001 6.791374
						CHANNELS 3 Yrotation Xrotation Zrotation
						JOINT LeftShoulder
						{
							OFFSET -13.574684 -0.000001 0.000000
							CHANNELS 3 Yrotation Xrotation Zrotation
							JOINT LeftElbow
							{
								OFFSET -23.923903 -0.000002 0.000000
								CHANNELS 3 Yrotation Xrotation Zrotation
								JOINT LeftWrist
								{
									OFFSET -19.846718 0.012763 0.000000
									CHANNELS 3 Yrotation Xrotation Zrotation
									End Site
									{
										OFFSET -14.973145 -0.000001 0.000000
									}
								}
							}
						}
					}
				}
			}
		}
	}
	JOINT RightHip
	{
		OFFSET 9.469263 0.004643 0.045487
		CHANNELS 3 Yrotation Xrotation Zrotation
		JOINT RightKnee
		{
			OFFSET 0.000000 0.002661 -40.478676
			CHANNELS 3 Yrotation Xrotation Zrotation
			JOINT RightAnkle
			{
				OFFSET 0.000000 0.049106 -35.224068
				CHANNELS 3 Yrotation Xrotation Zrotation
				JOINT RightToe
				{
					OFFSET -0.000001 12.539529 -6.151390
					CHANNELS 3 Yrotation Xrotation Zrotation
					End Site
					{
						OFFSET -0.000001 5.044994 -1.291870
					}
				}
			}
		}
	}
	JOINT LeftHip
	{
		OFFSET -9.469263 0.004641 0.045487
		CHANNELS 3 Yrotation Xrotation Zrotation
		JOINT LeftKnee
		{
			OFFSET 0.000000 0.002661 -40.478676
			CHANNELS 3 Yrotation Xrotation Zrotation
			JOINT LeftAnkle
			{
				OFFSET 0.000000 0.049106 -35.224068
				CHANNELS 3 Yrotation Xrotation Zrotation
				JOINT LeftToe
				{
					OFFSET -0.000001 12.539529 -6.151390
					CHANNELS 3 Yrotation Xrotation Zrotation
					End Site
					{
						OFFSET -0.000001 5.044994 -1.291870
					}
				}
			}
		}
	}
}
MOTION
Frames: 5
Frame Time: 0.016667
12.104329 5.787036 83.081490 -4.664048 -1.364783 -106.150197 -0.839818 -4.488104 -0.207123 -0.369301 -1.994941 -0.114592 -0.369301 -1.994941 -0.114592 -0.277322 -1.496136 -0.087140 1.074643 -18.845337 -2.412324 1.191989 1.186283 -4.075798 -2.170224 30.977814 0.121295 13.921687 9.572067 35.600473 -22.779383 -40.925927 28.901286 31.316783 -20.633861 -29.798145 2.469776 27.868408 0.099416 -13.943438 12.776667 -37.237560 6.629186 -20.975297 -17.214363 -38.772361 -39.246827 43.574541 -0.390140 -7.967642 -2.714402 2.044526 -2.154177 -8.524139 -1.049787 4.647405 0.932408 0.018580 0.040343 -0.002736 -0.286040 -8.540929 2.309263 0.467146 -0.540190 -0.075027 -1.808005 3.777390 -0.279850 0.035591 0.018685 0.007498 
12.113220 5.789643 83.081573 -4.659150 -1.363061 -106.181438 -0.865987 -4.476325 -0.160189 -0.379913 -1.988925 -0.093701 -0.379913 -1.988924 -0.093702 -0.285211 -1.491635 -0.071507 1.110415 -18.824428 -2.406811 1.258836 1.226032 -4.054281 -2.222240 31.032842 -0.143516 14.195885 9.796923 35.483144 -21.320873 -39.183952 29.393166 31.671994 -20.082161 -29.753667 2.470771 27.883793 0.145148 -14.713397 13.693038 -37.522546 5.656238 -18.911870 -18.585739 -38.883468 -36.378397 41.615158 -0.401349 -7.957417 -2.729049 2.050865 -2.169338 -8.496503 -1.049100 4.655631 0.935770 0.014745 0.033605 -0.004268 -0.295173 -8.535989 2.266189 0.470843 -0.559862 -0.033288 -1.810808 3.785019 -0.257426 0.033109 0.018291 0.007873 
12.123235 5.791161 83.081253 -4.654006 -1.360281 -106.201068 -0.908430 -4.455946 -0.107597 -0.398154 -1.979068 -0.069927 -0.398154 -1.979068 -0.069926 -0.298812 -1.484257 -0.053727 1.165334 -18.808222 -2.399725 1.361417 1.257486 -4.023628 -2.306980 31.129233 -0.466740 14.573812 9.951160 35.374277 -19.439845 -36.912381 29.780352 32.186467 -19.358568 -29.614133 2.525808 27.907132 0.203992 -15.602275 14.710803 -37.966115 4.105669 -16.365432 -19.649498 -38.841875 -32.956148 39.411489 -0.409922 -7.953860 -2.759476 2.052975 -2.175614 -8.450078 -1.047302 4.662737 0.931181 0.011422 0.026676 -0.005638 -0.305230 -8.536351 2.251202 0.478604 -0.566570 -0.006527 -1.816402 3.787572 -0.255267 0.030325 0.015798 0.008549 
12.136534 5.789498 83.081284 -4.647855 -1.357890 -106.208601 -0.963334 -4.432616 -0.043897 -0.421855 -1.967885 -0.041785 -0.421855 -1.967884 -0.041783 -0.316495 -1.475885 -0.032693 1.239338 -18.793546 -2.395929 1.497981 1.286452 -3.992804 -2.326451 31.188478 -0.742923 15.012396 10.185821 35.283063 -17.223746 -34.058407 30.105555 32.888068 -18.339983 -29.260913 2.575814 28.045231 0.211711 -16.247324 15.474885 -38.384864 2.349414 -13.589408 -20.573587 -38.991989 -29.091934 37.150410 -0.413264 -7.955660 -2.782859 2.052596 -2.177578 -8.410690 -1.047126 4.671960 0.921367 0.009918 0.021232 -0.006892 -0.311658 -8.542438 2.274685 0.486931 -0.562383 -0.012245 -1.823681 3.788414 -0.267306 0.027373 0.011558 0.009443 
12.150918 5.784063 83.082237 -4.647166 -1.356886 -106.204039 -0.998292 -4.417268 0.000580 -0.437375 -1.960812 -0.022741 -0.437376 -1.960813 -0.022740 -0.328072 -1.470593 -0.018459 1.291917 -18.776105 -2.374472 1.600934 1.320169 -3.936503 -2.367602 31.113530 -1.014720 15.635005 10.671293 35.346236 -14.397456 -30.302937 30.207888 33.497123 -17.129355 -28.746217 2.558356 28.056819 0.107395 -16.572108 15.913383 -38.655384 0.898505 -10.193791 -21.528101 -39.402313 -25.165651 34.800442 -0.413794 -7.966366 -2.783664 2.054296 -2.176629 -8.396827 -1.047529 4.677694 0.905765 0.007063 0.021247 -0.007706 -0.309794 -8.559076 2.325830 0.485967 -0.547778 -0.046854 -1.831013 3.782594 -0.286628 0.026872 0.009037 0.011086 
